<?xml version="1.0" encoding="UTF-8"?>
<svg viewBox="0 0 32 32" xmlns="http://www.w3.org/2000/svg">
<rect width="32" height="32" rx="6" fill="#004164"/>
<g transform="translate(4) skewX(-10)" stroke="#ff0" stroke-linecap="round" stroke-width="2">
<line x1="7" x2="23" y1="5" y2="5" stroke="#ff0"/>
<line x1="7" x2="8" y1="8" y2="8"/>
<line x1="7" x2="8" y1="11" y2="11"/>
<line x1="7" x2="8" y1="14" y2="14"/>
<line x1="7" x2="8" y1="17" y2="17"/>
<line x1="7" x2="8" y1="20" y2="20"/>
<line x1="7" x2="8" y1="23" y2="23"/>
<line x1="7" x2="8" y1="26" y2="26"/>
<g stroke="#87c576">
<line x1="11" x2="23" y1="8" y2="8"/>
<line x1="11" x2="13" y1="11" y2="11"/>
<line x1="11" x2="13" y1="14" y2="14"/>
<line x1="11" x2="17" y1="17" y2="17"/>
<line x1="11" x2="17" y1="20" y2="20"/>
<line x1="11" x2="13" y1="23" y2="23"/>
<line x1="11" x2="13" y1="26" y2="26"/>
</g>
</g>
</svg>
